<?xml version="1.0" encoding="UTF-8" standalone="no"?>
<!-- Generated by IcoMoon.io -->

<svg
   version="1.1"
   width="1024"
   height="1024"
   viewBox="0 0 1024 1024"
   id="svg1"
   sodipodi:docname="cpp-v2.svg"
   inkscape:version="1.3.2 (091e20ef0f, 2023-11-25)"
   xmlns:inkscape="http://www.inkscape.org/namespaces/inkscape"
   xmlns:sodipodi="http://sodipodi.sourceforge.net/DTD/sodipodi-0.dtd"
   xmlns="http://www.w3.org/2000/svg"
   xmlns:svg="http://www.w3.org/2000/svg">
  <defs
     id="defs1" />
  <sodipodi:namedview
     id="namedview1"
     pagecolor="#ffffff"
     bordercolor="#000000"
     borderopacity="0.25"
     inkscape:showpageshadow="2"
     inkscape:pageopacity="0.0"
     inkscape:pagecheckerboard="0"
     inkscape:deskcolor="#d1d1d1"
     inkscape:zoom="0.52687742"
     inkscape:cx="164.17481"
     inkscape:cy="629.17861"
     inkscape:window-width="1920"
     inkscape:window-height="1011"
     inkscape:window-x="0"
     inkscape:window-y="0"
     inkscape:window-maximized="1"
     inkscape:current-layer="svg1" />
  <g
     id="icomoon-ignore" />
  <path
     fill="#a8b9cc"
     d="m 584.38649,435.39951 c 0,0 -12.52831,-106.88195 -128.36925,-109.86853 -115.87289,-2.95388 -175.33458,80.17 -175.33458,198.96406 0,118.79406 65.75893,213.82931 178.4505,213.82931 112.72427,0 125.28527,-118.79406 125.28527,-118.79406 l 216.03616,11.87941 c 0,0 12.69109,107.30414 -77.703,189.16143 -90.42604,81.85726 -201.36566,95.22999 -278.87391,94.67848 -77.50826,-0.58424 -184.94249,1.10381 -288.87055,-96.36575 C 51.175678,721.47896 33.486652,626.80126 33.486652,533.81083 c 0,-93.02314 19.701891,-216.19895 143.267178,-309.64353 83.93482,-63.422 169.07082,-86.82327 254.20605,-86.82327 355.40845,-0.0327 379.23193,300.13376 379.23193,300.13376 z"
     id="path1"
     style="stroke-width:0.76072" />
  <g
     id="g3">
    <g
       id="g4"
       transform="translate(-6.4872182,5.9978966)">
      <g
         id="g1"
         transform="matrix(0.60482561,0,0,0.60482561,391.05386,246.37264)">
        <rect
           style="font-variation-settings:'wght' 700;fill:#a8b9cc;fill-opacity:1"
           id="rect1"
           width="62.117939"
           height="262.09177"
           x="564.44037"
           y="333.67758"
           ry="0" />
        <rect
           style="font-variation-settings:'wght' 700;fill:#a8b9cc;fill-opacity:1"
           id="rect1-7"
           width="62.117939"
           height="262.09177"
           x="-499.97382"
           y="471.3656"
           ry="0"
           transform="rotate(-90)" />
      </g>
      <g
         id="g2"
         transform="matrix(0.60482561,0,0,0.60482561,573.65152,246.38738)">
        <rect
           style="font-variation-settings:'wght' 700;fill:#a8b9cc;fill-opacity:1"
           id="rect1-2"
           width="62.117939"
           height="262.09177"
           x="564.44037"
           y="333.67758"
           ry="0" />
        <rect
           style="font-variation-settings:'wght' 700;fill:#a8b9cc;fill-opacity:1"
           id="rect1-7-0"
           width="62.117939"
           height="262.09177"
           x="-499.97382"
           y="471.3656"
           ry="0"
           transform="rotate(-90)" />
      </g>
    </g>
  </g>
</svg>
